<?xml version="1.0" encoding="UTF-8" standalone="no"?>
<svg
   xmlns:dc="http://purl.org/dc/elements/1.1/"
   xmlns:cc="http://creativecommons.org/ns#"
   xmlns:rdf="http://www.w3.org/1999/02/22-rdf-syntax-ns#"
   xmlns:svg="http://www.w3.org/2000/svg"
   xmlns="http://www.w3.org/2000/svg"
   xmlns:sodipodi="http://sodipodi.sourceforge.net/DTD/sodipodi-0.dtd"
   xmlns:inkscape="http://www.inkscape.org/namespaces/inkscape"
   sodipodi:modified="true"
   inkscape:output_extension="org.inkscape.output.svg.inkscape"
   version="1.0"
   sodipodi:docname="SPI_basic.svg"
   inkscape:version="1.0 (4035a4fb49, 2020-05-01)"
   sodipodi:version="0.32"
   id="svg2"
   height="54.703251pt"
   width="249.77484pt">
  <defs
     id="defs4">
    <marker
       style="overflow:visible"
       id="TriangleInL"
       refX="0"
       refY="0"
       orient="auto"
       inkscape:stockid="TriangleInL">
      <path
         transform="scale(-0.8)"
         style="fill-rule:evenodd;stroke:#000000;stroke-width:1pt;marker-start:none"
         d="M 5.77,0 -2.88,5 V -5 Z"
         id="path2502" />
    </marker>
    <marker
       style="overflow:visible"
       id="Arrow1Mend"
       refX="0"
       refY="0"
       orient="auto"
       inkscape:stockid="Arrow1Mend">
      <path
         transform="scale(-0.4)"
         style="fill-rule:evenodd;stroke:#000000;stroke-width:1pt;marker-start:none"
         d="M 0,0 5,-5 -12.5,0 5,5 Z"
         id="path2585" />
    </marker>
    <marker
       style="overflow:visible"
       id="Arrow1Mstart"
       refX="0"
       refY="0"
       orient="auto"
       inkscape:stockid="Arrow1Mstart">
      <path
         transform="scale(0.4)"
         style="fill-rule:evenodd;stroke:#000000;stroke-width:1pt;marker-start:none"
         d="M 0,0 5,-5 -12.5,0 5,5 Z"
         id="path2588" />
    </marker>
    <marker
       style="overflow:visible"
       id="TriangleOutL"
       refX="0"
       refY="0"
       orient="auto"
       inkscape:stockid="TriangleOutL">
      <path
         transform="scale(0.8)"
         style="fill-rule:evenodd;stroke:#000000;stroke-width:1pt;marker-start:none"
         d="M 5.77,0 -2.88,5 V -5 Z"
         id="path2493" />
    </marker>
    <marker
       style="overflow:visible"
       id="Arrow2Lend"
       refX="0"
       refY="0"
       orient="auto"
       inkscape:stockid="Arrow2Lend">
      <path
         transform="matrix(-1.1,0,0,-1.1,5.5,0)"
         d="M 8.7185878,4.0337352 -2.2072895,0.01601326 8.7185884,-4.0017078 c -1.7454984,2.3720609 -1.7354408,5.6174519 -6e-7,8.035443 z"
         style="font-size:12px;fill-rule:evenodd;stroke-width:0.625;stroke-linejoin:round"
         id="path3298" />
    </marker>
    <marker
       style="overflow:visible"
       id="Arrow1Lend"
       refX="0"
       refY="0"
       orient="auto"
       inkscape:stockid="Arrow1Lend">
      <path
         transform="scale(-0.8)"
         style="fill-rule:evenodd;stroke:#000000;stroke-width:1pt;marker-start:none"
         d="M 0,0 5,-5 -12.5,0 5,5 Z"
         id="path3316" />
    </marker>
    <marker
       style="overflow:visible"
       id="Arrow1Lstart"
       refX="0"
       refY="0"
       orient="auto"
       inkscape:stockid="Arrow1Lstart">
      <path
         transform="scale(0.8)"
         style="fill-rule:evenodd;stroke:#000000;stroke-width:1pt;marker-start:none"
         d="M 0,0 5,-5 -12.5,0 5,5 Z"
         id="path3319" />
    </marker>
  </defs>
  <sodipodi:namedview
     inkscape:window-maximized="0"
     showgrid="false"
     inkscape:document-rotation="0"
     inkscape:window-y="83"
     inkscape:window-x="113"
     inkscape:window-height="1068"
     inkscape:window-width="1780"
     inkscape:current-layer="g2395"
     inkscape:document-units="px"
     inkscape:cy="32.444897"
     inkscape:cx="100.20363"
     inkscape:zoom="2.8284272"
     inkscape:pageshadow="2"
     inkscape:pageopacity="0.0"
     borderopacity="1.0"
     bordercolor="#666666"
     pagecolor="#ffffff"
     id="base" />
  <metadata
     id="metadata7">
    <rdf:RDF>
      <cc:Work
         rdf:about="">
        <dc:format>image/svg+xml</dc:format>
        <dc:type
           rdf:resource="http://purl.org/dc/dcmitype/StillImage" />
      </cc:Work>
    </rdf:RDF>
  </metadata>
  <g
     transform="translate(-21.30146,-18.726091)"
     id="layer1"
     inkscape:groupmode="layer"
     inkscape:label="Layer 1">
    <g
       id="g1994">
      <path
         id="path3144"
         d="m 140.09375,31.34375 v 0.96875 c 44.92846,0 67.39288,0 78.625,0 5.61606,0 8.40849,0 9.8125,0 0.70201,0 1.04325,0 1.21875,0 0.0877,0 0.13431,0 0.15625,0 0.011,0 0.0285,0 0.0312,0 v -0.46875 -0.5 c 0,0 0.0132,1e-6 -89.84375,0 z"
         style="fill:#000000;fill-opacity:1;fill-rule:evenodd;stroke:none;stroke-width:0.969314px;stroke-linecap:butt;stroke-linejoin:miter;stroke-opacity:1" />
      <path
         id="path2000"
         d="m 234.41172,31.830319 -6.70765,3.877257 v -7.754514 z"
         style="fill-rule:evenodd;stroke:#000000;stroke-width:0.775451pt;marker-start:none" />
    </g>
    <g
       id="g2002">
      <path
         id="path3330"
         d="m 140.09375,46.9375 v 0.96875 c 44.86956,0 67.28261,0 78.5,0 5.6087,0 8.41033,0 9.8125,0 0.70109,0 1.07473,0 1.25,0 0.0876,0 0.13434,0 0.15625,0 v -0.46875 -0.5 c 0,0 0.0204,-10e-7 -89.71875,0 z"
         style="fill:#000000;fill-opacity:1;fill-rule:evenodd;stroke:none;stroke-width:0.968679px;stroke-linecap:butt;stroke-linejoin:miter;stroke-opacity:1" />
      <path
         id="path2008"
         d="m 234.29035,47.433902 -6.70326,3.874715 v -7.74943 z"
         style="fill-rule:evenodd;stroke:#000000;stroke-width:0.774943pt;marker-start:none" />
    </g>
    <g
       id="g2018">
      <path
         id="path3334"
         d="M 140.09375,78.15625 V 79.125 c 44.92846,-10e-7 67.39288,0 78.625,0 5.61606,0 8.40849,0 9.8125,0 0.70201,0 1.04325,0 1.21875,0 0.0877,0 0.13431,0 0.15625,0 0.011,0 0.0285,0 0.0312,0 v -0.46875 -0.5 c 0,0 0.0132,-3e-6 -89.84375,0 z"
         style="fill:#000000;fill-opacity:1;fill-rule:evenodd;stroke:none;stroke-width:0.969314px;stroke-linecap:butt;stroke-linejoin:miter;stroke-opacity:1" />
      <path
         id="path2024"
         d="m 234.41172,78.641034 -6.70765,3.877257 v -7.754514 z"
         style="fill-rule:evenodd;stroke:#000000;stroke-width:0.775451pt;marker-start:none" />
    </g>
    <g
       id="g2010">
      <path
         id="path2783"
         d="m 145.75,63.4375 v 1.03125 c 44.85367,10e-7 67.28658,0 78.5,0 5.60671,0 8.41082,0 9.8125,0 0.70084,0 1.04354,0 1.21875,0 0.0876,0 0.13435,0 0.15625,0 0.011,0 0.0285,0 0.0312,0 v -0.53125 -0.5 c 0,0 -0.0114,10e-7 -89.71875,0 z"
         style="fill:#000000;fill-opacity:1;fill-rule:evenodd;stroke:none;stroke-width:1.00844px;stroke-linecap:butt;stroke-linejoin:miter;stroke-opacity:1" />
      <path
         id="path2016"
         d="m 141.09578,63.949224 6.97842,-4.033771 v 8.067542 z"
         style="fill-rule:evenodd;stroke:#000000;stroke-width:0.806754pt;marker-start:none" />
    </g>
    <g
       id="g2395">
      <rect
         style="opacity:1;fill:#22b8cf;fill-opacity:1;fill-rule:evenodd;stroke:#66d9e8;stroke-width:0.749993px;stroke-linecap:butt;stroke-linejoin:miter;stroke-opacity:1"
         id="rect1307"
         width="118.28313"
         height="72.187675"
         x="21.676456"
         y="19.101088" />
      <text
         xml:space="preserve"
         style="font-style:normal;font-weight:normal;line-height:0%;font-family:'Bitstream Vera Sans';text-align:center;writing-mode:lr-tb;text-anchor:middle;fill:#f8f9fa;fill-opacity:1;stroke:none;stroke-width:1px;stroke-linecap:butt;stroke-linejoin:miter;stroke-opacity:1"
         x="46.81802"
         y="52.045509"
         id="text2182"><tspan
           style="font-size:12px;line-height:1.25;fill:#f8f9fa"
           sodipodi:role="line"
           id="tspan2184"
           x="46.81802"
           y="52.045509">SPI</tspan><tspan
           style="font-size:12px;line-height:1.25;fill:#f8f9fa"
           sodipodi:role="line"
           x="46.81802"
           y="67.045509"
           id="tspan2186">Master</tspan></text>
      <text
         xml:space="preserve"
         style="font-style:normal;font-weight:normal;line-height:0%;font-family:'Bitstream Vera Sans';fill:#f8f9fa;fill-opacity:1;stroke:none;stroke-width:1px;stroke-linecap:butt;stroke-linejoin:miter;stroke-opacity:1"
         x="92.818016"
         y="37.057228"
         id="text3061"><tspan
           style="font-size:12px;line-height:1.25;fill:#f8f9fa"
           sodipodi:role="line"
           id="tspan3063"
           x="92.818016"
           y="37.057228">SCLK</tspan><tspan
           style="font-size:12px;line-height:1.25;fill:#f8f9fa"
           sodipodi:role="line"
           x="92.818016"
           y="52.057228"
           id="tspan3065">MOSI</tspan><tspan
           style="font-size:12px;line-height:1.25;fill:#f8f9fa"
           sodipodi:role="line"
           x="92.818016"
           y="67.057228"
           id="tspan3067">MISO</tspan><tspan
           style="font-size:12px;line-height:1.25;fill:#f8f9fa"
           sodipodi:role="line"
           x="92.818016"
           y="82.057228"
           id="tspan3069">SS</tspan></text>
      <path
         style="fill:#fff0f6;fill-opacity:0.75;fill-rule:evenodd;stroke:#ffffff;stroke-width:1px;stroke-linecap:butt;stroke-linejoin:miter;stroke-opacity:1"
         d="m 93.8125,71.0625 h 13.21875"
         id="path2341" />
    </g>
    <g
       id="g2374">
      <rect
         style="fill:#20c997;fill-opacity:1;fill-rule:evenodd;stroke:#63e6be;stroke-width:0.749993px;stroke-linecap:butt;stroke-linejoin:miter;stroke-opacity:1"
         id="rect3084"
         width="118.28313"
         height="72.187675"
         x="235.67645"
         y="19.101088" />
      <text
         xml:space="preserve"
         style="font-style:normal;font-weight:normal;line-height:0%;font-family:'Bitstream Vera Sans';text-align:center;writing-mode:lr-tb;text-anchor:middle;fill:#f8f9fa;fill-opacity:1;stroke:none;stroke-width:1px;stroke-linecap:butt;stroke-linejoin:miter;stroke-opacity:1"
         x="328.81802"
         y="52.045509"
         id="text3086"><tspan
           style="font-size:12px;line-height:1.25;fill:#f8f9fa"
           sodipodi:role="line"
           id="tspan3088"
           x="328.81802"
           y="52.045509">SPI</tspan><tspan
           style="font-size:12px;line-height:1.25;fill:#f8f9fa"
           sodipodi:role="line"
           x="328.81802"
           y="67.045509"
           id="tspan3090">Slave</tspan></text>
      <text
         xml:space="preserve"
         style="font-style:normal;font-weight:normal;line-height:0%;font-family:'Bitstream Vera Sans';fill:#f8f9fa;fill-opacity:1;stroke:none;stroke-width:1px;stroke-linecap:butt;stroke-linejoin:miter;stroke-opacity:1"
         x="244.81802"
         y="37.057228"
         id="text3092"><tspan
           style="font-size:12px;line-height:1.25;fill:#f8f9fa"
           sodipodi:role="line"
           id="tspan3094"
           x="244.81802"
           y="37.057228">SCLK</tspan><tspan
           style="font-size:12px;line-height:1.25;fill:#f8f9fa"
           sodipodi:role="line"
           x="244.81802"
           y="52.057228"
           id="tspan3096">MOSI</tspan><tspan
           style="font-size:12px;line-height:1.25;fill:#f8f9fa"
           sodipodi:role="line"
           x="244.81802"
           y="67.057228"
           id="tspan3098">MISO</tspan><tspan
           style="font-size:12px;line-height:1.25;fill:#f8f9fa"
           sodipodi:role="line"
           x="244.81802"
           y="82.057228"
           id="tspan3100">SS</tspan></text>
      <path
         style="fill:#f8f9fa;fill-opacity:0.75;fill-rule:evenodd;stroke:#ffffff;stroke-width:1px;stroke-linecap:butt;stroke-linejoin:miter;stroke-opacity:1"
         d="m 245.39063,71.0625 h 13.21875"
         id="path2343" />
    </g>
  </g>
</svg>
